<svg xmlns="http://www.w3.org/2000/svg" version="1.1" xmlns:xlink="http://www.w3.org/1999/xlink" xmlns:svgjs="http://svgjs.dev/svgjs" width="1000" height="1000" viewBox="0 0 1000 1000"><rect width="1000" height="1000" fill="#000000"></rect><g transform="matrix(0.7,0,0,0.7,149.57575757575756,406.4876643108391)"><svg viewBox="0 0 396 106" data-background-color="#ffffff" preserveAspectRatio="xMidYMid meet" height="267" width="1000" xmlns="http://www.w3.org/2000/svg" xmlns:xlink="http://www.w3.org/1999/xlink"><g id="tight-bounds" transform="matrix(1,0,0,1,0.2400000000000091,0.03535357437698394)"><svg viewBox="0 0 395.52 105.92929285124602" height="105.92929285124602" width="395.52"><g><svg viewBox="0 0 395.52 105.92929285124602" height="105.92929285124602" width="395.52"><g><svg viewBox="0 0 634.4475127035512 169.9195397752809" height="105.92929285124602" width="395.52"><g transform="matrix(1,0,0,1,0,23.483814831460677)"><svg viewBox="0 0 395.52 122.95191011235954" height="122.95191011235954" width="395.52"><g id="textblocktransform"><svg viewBox="0 0 395.52 122.95191011235954" height="122.95191011235954" width="395.52" id="textblock"><g><svg viewBox="0 0 395.52 122.95191011235954" height="122.95191011235954" width="395.52"><g transform="matrix(1,0,0,1,0,0)"><svg width="395.52" viewBox="2.9 -40.95 133.48999999999998 41.5" height="122.95191011235954" data-palette-color="#ffa458"><g class="wordmark-text-0" data-fill-palette-color="primary" id="text-0"><path d="M12.6 0.55L12.6 0.55Q8.75 0.55 6.65-1.03 4.55-2.6 3.73-5.4 2.9-8.2 2.9-11.75L2.9-11.75 2.9-28.95Q2.9-32.5 3.73-35.2 4.55-37.9 6.7-39.43 8.85-40.95 12.75-40.95L12.75-40.95Q16.3-40.95 18.32-39.55 20.35-38.15 21.23-35.55 22.1-32.95 22.1-29.4L22.1-29.4 22.1-28 19.5-28 19.5-29.55Q19.5-32.55 18.9-34.58 18.3-36.6 16.85-37.65 15.4-38.7 12.75-38.7L12.75-38.7Q9.8-38.7 8.25-37.48 6.7-36.25 6.18-34.08 5.65-31.9 5.65-29.05L5.65-29.05 5.65-11.4Q5.65-8.45 6.25-6.28 6.85-4.1 8.4-2.9 9.95-1.7 12.8-1.7L12.8-1.7Q15.5-1.7 16.98-2.85 18.45-4 19.03-6.15 19.6-8.3 19.6-11.25L19.6-11.25 19.6-17.2 13.15-17.2 13.15-19.3 22.15-19.3 22.15 0 20.4 0 20-4.55Q19.25-2.2 17.53-0.83 15.8 0.55 12.6 0.55ZM29.8 0L27.1 0 35.6-40.5 38.75-40.5 47.3 0 44.55 0 42.45-11.2 31.95-11.2 29.8 0ZM37.2-37.2L32.35-13.2 42.1-13.2 37.2-37.2ZM61.5 0.55L61.5 0.55Q57.65 0.55 55.55-1.03 53.45-2.6 52.62-5.4 51.8-8.2 51.8-11.75L51.8-11.75 51.8-28.95Q51.8-32.5 52.62-35.2 53.45-37.9 55.6-39.43 57.75-40.95 61.65-40.95L61.65-40.95Q65.2-40.95 67.22-39.55 69.25-38.15 70.12-35.55 71-32.95 71-29.4L71-29.4 71-28 68.4-28 68.4-29.55Q68.4-32.55 67.8-34.58 67.2-36.6 65.75-37.65 64.3-38.7 61.65-38.7L61.65-38.7Q58.7-38.7 57.15-37.48 55.6-36.25 55.07-34.08 54.55-31.9 54.55-29.05L54.55-29.05 54.55-11.4Q54.55-8.45 55.15-6.28 55.75-4.1 57.3-2.9 58.85-1.7 61.7-1.7L61.7-1.7Q64.4-1.7 65.87-2.85 67.34-4 67.92-6.15 68.5-8.3 68.5-11.25L68.5-11.25 68.5-17.2 62.05-17.2 62.05-19.3 71.05-19.3 71.05 0 69.3 0 68.9-4.55Q68.15-2.2 66.42-0.83 64.7 0.55 61.5 0.55ZM86.99 0.55L86.99 0.55Q83.14 0.55 81.04-1.03 78.94-2.6 78.12-5.4 77.29-8.2 77.29-11.75L77.29-11.75 77.29-28.95Q77.29-32.5 78.12-35.2 78.94-37.9 81.09-39.43 83.24-40.95 87.14-40.95L87.14-40.95Q90.69-40.95 92.72-39.55 94.74-38.15 95.62-35.55 96.49-32.95 96.49-29.4L96.49-29.4 96.49-28 93.89-28 93.89-29.55Q93.89-32.55 93.29-34.58 92.69-36.6 91.24-37.65 89.79-38.7 87.14-38.7L87.14-38.7Q84.19-38.7 82.64-37.48 81.09-36.25 80.57-34.08 80.04-31.9 80.04-29.05L80.04-29.05 80.04-11.4Q80.04-8.45 80.64-6.28 81.24-4.1 82.79-2.9 84.34-1.7 87.19-1.7L87.19-1.7Q89.89-1.7 91.37-2.85 92.84-4 93.42-6.15 93.99-8.3 93.99-11.25L93.99-11.25 93.99-17.2 87.54-17.2 87.54-19.3 96.54-19.3 96.54 0 94.79 0 94.39-4.55Q93.64-2.2 91.92-0.83 90.19 0.55 86.99 0.55ZM118.59 0L103.64 0 103.64-40.5 106.34-40.5 106.34-2.15 118.59-2.15 118.59 0ZM136.39 0L122.24 0 122.24-40.5 136.24-40.5 136.24-38.3 124.99-38.3 124.99-22.05 134.24-22.05 134.24-19.95 124.99-19.95 124.99-2.15 136.39-2.15 136.39 0Z" fill="#ffffff" data-fill-palette-color="primary"></path></g></svg></g></svg></g></svg></g></svg></g><g transform="matrix(1,0,0,1,424.54599513168534,0)"><svg viewBox="0 0 209.90151757186578 169.9195397752809" height="169.9195397752809" width="209.90151757186578"><g><svg xmlns="http://www.w3.org/2000/svg" xmlns:xlink="http://www.w3.org/1999/xlink" version="1.1" x="0" y="0" viewBox="4.9995 13.57205104139477 90.00076814621133 72.85744895860523" enable-background="new 0 0 100 100" xml:space="preserve" height="169.9195397752809" width="209.90151757186578" class="icon-icon-0" data-fill-palette-color="accent" id="icon-0"><g fill="#ba3b0a" data-fill-palette-color="accent"><path fill="#ffffff" d="M23.81 76.102c-2.362 2.361-2.362 6.192 0 8.556 2.362 2.362 6.193 2.362 8.556 0 2.361-2.363 2.361-6.194 0-8.556C30.003 73.739 26.172 73.739 23.81 76.102zM94.226 14.432l-0.086-0.085c-1.157-1.158-3.192-1-4.544 0.352L66.65 37.643 51.499 22.492 8.754 65.237 6.787 63.27l42.745-42.746c-2.363-2.348-6.183-2.343-8.541 0.015L6.771 54.757c-2.362 2.363-2.362 6.195 0 8.558L20.41 76.951c0.407-0.912 0.983-1.769 1.732-2.517 3.284-3.284 8.608-3.284 11.891 0 0.776 0.774 1.366 1.667 1.775 2.616l35.124-35.125-0.006-0.004 22.945-22.945C95.226 17.623 95.383 15.589 94.226 14.432z" data-fill-palette-color="accent"></path></g></svg></g></svg></g></svg></g></svg></g><defs></defs></svg><rect width="395.52" height="105.92929285124602" fill="none" stroke="none" visibility="hidden"></rect></g></svg></g></svg>